<?xml version="1.0" encoding="utf-8"?>
<!-- Svg Vector Icons : http://www.onlinewebfonts.com/icon -->
<!DOCTYPE svg PUBLIC "-//W3C//DTD SVG 1.1//EN" "http://www.w3.org/Graphics/SVG/1.1/DTD/svg11.dtd">
<svg version="1.1" xmlns="http://www.w3.org/2000/svg" xmlns:xlink="http://www.w3.org/1999/xlink" x="0px" y="0px" viewBox="0 0 1000 1000" enable-background="new 0 0 1000 1000" xml:space="preserve">
<metadata> Svg Vector Icons : http://www.onlinewebfonts.com/icon </metadata>
<g><path d="M949.2,173.3H50.8c-22.5,0-40.8,18.3-40.8,40.8v449.2c0,22.5,18.3,40.8,40.8,40.8h898.3c22.5,0,40.8-18.3,40.8-40.8V214.2C990,191.6,971.7,173.3,949.2,173.3z M295.8,438.8c0,11.3-9.1,20.4-20.4,20.4H112.1c-11.3,0-20.4-9.1-20.4-20.4V275.4c0-11.3,9.1-20.4,20.4-20.4h163.3c11.3,0,20.4,9.1,20.4,20.4V438.8z M622.5,438.8c0,11.3-9.1,20.4-20.4,20.4H397.9c-11.3,0-20.4-9.1-20.4-20.4V275.4c0-11.3,9.1-20.4,20.4-20.4h204.2c11.3,0,20.4,9.1,20.4,20.4V438.8z M908.3,438.8c0,11.3-9.1,20.4-20.4,20.4H724.6c-11.3,0-20.4-9.1-20.4-20.4V275.4c0-11.3,9.1-20.4,20.4-20.4h163.3c11.3,0,20.4,9.1,20.4,20.4V438.8z"/><g><g><path d="M336.7,724.6c11.3,0,20.4,9.1,20.4,20.4s-9.1,20.4-20.4,20.4s-20.4-9.1-20.4-20.4S325.4,724.6,336.7,724.6 M336.7,663.3c-45.1,0-81.7,36.6-81.7,81.7s36.6,81.7,81.7,81.7c45.1,0,81.7-36.6,81.7-81.7S381.7,663.3,336.7,663.3L336.7,663.3z"/></g></g><g><g><path d="M173.3,724.6c11.3,0,20.4,9.1,20.4,20.4s-9.1,20.4-20.4,20.4s-20.4-9.1-20.4-20.4S162.1,724.6,173.3,724.6 M173.3,663.3c-45.1,0-81.7,36.6-81.7,81.7s36.6,81.7,81.7,81.7S255,790.1,255,745S218.4,663.3,173.3,663.3L173.3,663.3z"/></g></g><g><g><path d="M826.7,724.6c11.3,0,20.4,9.1,20.4,20.4s-9.1,20.4-20.4,20.4c-11.3,0-20.4-9.1-20.4-20.4S815.4,724.6,826.7,724.6 M826.7,663.3c-45.1,0-81.7,36.6-81.7,81.7s36.6,81.7,81.7,81.7s81.7-36.6,81.7-81.7S871.7,663.3,826.7,663.3L826.7,663.3z"/></g></g><g><g><path d="M663.3,724.6c11.3,0,20.4,9.1,20.4,20.4s-9.1,20.4-20.4,20.4c-11.3,0-20.4-9.1-20.4-20.4S652.1,724.6,663.3,724.6 M663.3,663.3c-45.1,0-81.7,36.6-81.7,81.7s36.6,81.7,81.7,81.7S745,790.1,745,745S708.4,663.3,663.3,663.3L663.3,663.3z"/></g></g></g>
</svg>